<?xml version="1.0" standalone="no"?>
<!DOCTYPE svg PUBLIC "-//W3C//DTD SVG 20010904//EN"
 "http://www.w3.org/TR/2001/REC-SVG-20010904/DTD/svg10.dtd">
<svg version="1.0" xmlns="http://www.w3.org/2000/svg"
 width="2000.000000pt" height="1104.000000pt" viewBox="0 0 2000.000000 1104.000000"
 preserveAspectRatio="xMidYMid meet">

<g transform="translate(0.000000,1104.000000) scale(0.100000,-0.100000)"
fill="#000000" stroke="none">
<path d="M5030 10903 c-786 -57 -1453 -247 -2133 -606 -618 -326 -1185 -806
-1611 -1366 -179 -235 -355 -518 -496 -801 -328 -655 -499 -1278 -572 -2080
-19 -211 -16 -865 5 -1080 65 -648 202 -1189 437 -1720 608 -1377 1716 -2380
3134 -2839 329 -107 641 -172 1032 -217 190 -22 749 -30 953 -15 1103 85 2093
488 2952 1201 154 129 493 467 621 620 53 63 137 169 186 235 l91 120 -257
260 c-542 548 -1637 1645 -1642 1645 -3 0 -18 -30 -34 -66 -44 -97 -171 -306
-252 -414 -398 -527 -996 -881 -1664 -985 -140 -22 -511 -31 -665 -16 -111 11
-282 44 -313 60 -9 5 743 919 2417 2936 l2429 2928 -56 76 c-486 664 -1143
1217 -1887 1588 -600 301 -1247 479 -1929 533 -116 9 -635 11 -746 3z m800
-2638 c103 -19 260 -61 273 -74 8 -8 -2991 -4000 -3005 -4001 -23 -1 -97 187
-143 365 -166 631 -165 1353 2 1905 208 690 640 1231 1233 1543 265 140 563
232 880 273 151 19 631 12 760 -11z"/>
<path d="M15064 10895 c-720 -68 -1370 -276 -2014 -646 -529 -302 -1035 -733
-1441 -1224 -639 -773 -1080 -1771 -1228 -2775 -136 -920 -67 -1789 204 -2579
394 -1146 1210 -2153 2240 -2763 169 -100 189 -110 374 -203 610 -304 1227
-473 1920 -526 206 -15 769 -7 951 15 630 75 1172 231 1705 492 224 109 380
199 605 349 494 330 904 716 1258 1183 56 74 101 139 100 143 -3 8 -1889 1899
-1894 1899 -2 0 -28 -50 -59 -112 -258 -510 -678 -911 -1205 -1148 -210 -95
-456 -169 -685 -205 -136 -22 -500 -31 -651 -16 -582 59 -1124 313 -1534 721
-216 214 -368 425 -500 695 -122 248 -186 440 -230 693 -80 455 -28 1066 130
1544 350 1053 1156 1746 2149 1849 255 26 615 -1 861 -65 761 -199 1399 -766
1699 -1511 21 -53 41 -98 43 -101 3 -2 431 424 952 946 l947 951 -22 37 c-60
100 -214 329 -289 427 -246 324 -560 641 -890 896 -734 568 -1580 912 -2520
1025 -185 22 -782 28 -976 9z"/>
</g>
</svg>
